<mxfile host="app.diagrams.net" agent="Mozilla/5.0 (Windows NT 10.0; Win64; x64) AppleWebKit/537.36 (KHTML, like Gecko) Chrome/127.0.0.0 Safari/537.36" version="24.7.7">
  <diagram name="Página-1" id="PoFWCZQ236Lpenq0vHcv">
    <mxGraphModel dx="1166" dy="614" grid="1" gridSize="10" guides="1" tooltips="1" connect="1" arrows="1" fold="1" page="1" pageScale="1" pageWidth="827" pageHeight="1169" math="0" shadow="0">
      <root>
        <mxCell id="0" />
        <mxCell id="1" parent="0" />
        <mxCell id="8UQCT4z4PkMHKA5L1V-o-7" style="edgeStyle=orthogonalEdgeStyle;rounded=0;orthogonalLoop=1;jettySize=auto;html=1;entryX=0;entryY=0.5;entryDx=0;entryDy=0;" edge="1" parent="1" source="8UQCT4z4PkMHKA5L1V-o-1" target="8UQCT4z4PkMHKA5L1V-o-6">
          <mxGeometry relative="1" as="geometry" />
        </mxCell>
        <mxCell id="8UQCT4z4PkMHKA5L1V-o-1" value="Usuario" style="shape=umlActor;verticalLabelPosition=bottom;verticalAlign=top;html=1;outlineConnect=0;" vertex="1" parent="1">
          <mxGeometry x="120" y="440" width="30" height="60" as="geometry" />
        </mxCell>
        <mxCell id="8UQCT4z4PkMHKA5L1V-o-3" value="&lt;p style=&quot;margin-top: 0px;&quot;&gt;&lt;font style=&quot;font-size: 14px;&quot;&gt;&lt;font style=&quot;&quot;&gt;Ejercicio Luis y Joseph&lt;br&gt;&lt;/font&gt;&lt;font style=&quot;&quot;&gt;Ejercicio:&lt;br&gt;&lt;/font&gt;&lt;font style=&quot;&quot;&gt;1.subasta-compra de un coche - inclusión- extensión y generalización&lt;br&gt;&lt;/font&gt;&lt;font style=&quot;&quot;&gt;Descripción:&amp;nbsp; en una venta de coches, hay usuarios que desean comprar diferentes tipos&amp;nbsp; de coches de los mas&amp;nbsp; simples a los mas caros, atraves de una apliación para luego retirar su compra.&amp;nbsp;&lt;br&gt;&lt;/font&gt;&lt;span style=&quot;white-space: normal;&quot;&gt;&lt;font style=&quot;&quot;&gt;&lt;span style=&quot;white-space:pre&quot;&gt;&#x9;&lt;/span&gt;1.Observar coches. el usuario puede ver los diferentes modelos de coches a través &lt;span style=&quot;white-space:pre&quot;&gt;&#x9;&lt;/span&gt;de la app&lt;span style=&quot;white-space:pre&quot;&gt;&#x9;&lt;br&gt;&lt;/span&gt;&lt;/font&gt;&lt;/span&gt;&lt;span style=&quot;white-space: normal;&quot;&gt;&lt;font style=&quot;&quot;&gt;&lt;span style=&quot;white-space:pre&quot;&gt;&#x9;&lt;/span&gt;2. Debe de incribirse en la aplicación. el usuario debe de registrarse en la aplicación y colocar todos sus datos para poder pujar por un modelo&lt;br&gt;&lt;/font&gt;&lt;/span&gt;&lt;span style=&quot;white-space: normal;&quot;&gt;&lt;font style=&quot;&quot;&gt;&lt;span style=&quot;white-space:pre&quot;&gt;&#x9;&lt;/span&gt;3.Elegir modelo del coche.El usuario una vez elegido el coche de interés podrá&amp;nbsp; realizar la reserva del mismo.&lt;br&gt;&lt;/font&gt;&lt;/span&gt;&lt;span style=&quot;white-space: normal;&quot;&gt;&lt;font style=&quot;&quot;&gt;&lt;span style=&quot;white-space:pre&quot;&gt;&#x9;&lt;/span&gt;4. El usuario moderador/administrador, está encargado de llevar a cabo la revisión &lt;span style=&quot;white-space:pre&quot;&gt;&#x9;&lt;/span&gt;de pujas de los usuarios participantes de dicha subasta. Comprobar sus datos y ver &lt;span style=&quot;white-space:pre&quot;&gt;&#x9;&lt;/span&gt;que realmente tienen los medios para pagar hacer frente a sus pujas.&lt;br&gt;&lt;/font&gt;&lt;/span&gt;&lt;span style=&quot;white-space: normal;&quot;&gt;&lt;font style=&quot;&quot;&gt;&lt;span style=&quot;white-space:pre&quot;&gt;&#x9;&lt;/span&gt;5. Otro usuario suministrador, puede realizar las funciones de usuario normal&amp;nbsp; y &lt;span style=&quot;white-space:pre&quot;&gt;&#x9;&lt;/span&gt;además está autorizado por el concesionario para proveerles de vehículos que &lt;span style=&quot;white-space:pre&quot;&gt;&#x9;&lt;/span&gt;puedan ser subastados.&lt;br&gt;&lt;/font&gt;&lt;/span&gt;&lt;span style=&quot;white-space: normal;&quot;&gt;&lt;font style=&quot;&quot;&gt;&lt;span style=&quot;white-space:pre&quot;&gt;&#x9;&lt;/span&gt;6. Al finalizar una subasta, se enviará un correo a todos los usuarios informándoles &lt;span style=&quot;white-space:pre&quot;&gt;&#x9;&lt;/span&gt;del precio final sobre su artículo de interés.&lt;br&gt;&lt;/font&gt;&lt;/span&gt;&lt;font style=&quot;&quot;&gt;7. Los usuarios pujantes pueden decidir si quieren recibir un correo informativo sobre subastas similares.&lt;/font&gt;&lt;/font&gt;&lt;/p&gt;" style="text;html=1;whiteSpace=wrap;overflow=hidden;rounded=0;align=left;" vertex="1" parent="1">
          <mxGeometry x="130" y="20" width="710" height="320" as="geometry" />
        </mxCell>
        <mxCell id="8UQCT4z4PkMHKA5L1V-o-11" style="edgeStyle=orthogonalEdgeStyle;rounded=0;orthogonalLoop=1;jettySize=auto;html=1;entryX=0;entryY=0.5;entryDx=0;entryDy=0;" edge="1" parent="1" source="8UQCT4z4PkMHKA5L1V-o-6" target="8UQCT4z4PkMHKA5L1V-o-8">
          <mxGeometry relative="1" as="geometry" />
        </mxCell>
        <mxCell id="8UQCT4z4PkMHKA5L1V-o-6" value="ver coches" style="ellipse;whiteSpace=wrap;html=1;" vertex="1" parent="1">
          <mxGeometry x="280" y="430" width="120" height="80" as="geometry" />
        </mxCell>
        <mxCell id="8UQCT4z4PkMHKA5L1V-o-9" style="edgeStyle=orthogonalEdgeStyle;rounded=0;orthogonalLoop=1;jettySize=auto;html=1;" edge="1" parent="1" source="8UQCT4z4PkMHKA5L1V-o-8" target="8UQCT4z4PkMHKA5L1V-o-10">
          <mxGeometry relative="1" as="geometry">
            <mxPoint x="690" y="470" as="targetPoint" />
          </mxGeometry>
        </mxCell>
        <mxCell id="8UQCT4z4PkMHKA5L1V-o-14" style="edgeStyle=orthogonalEdgeStyle;rounded=0;orthogonalLoop=1;jettySize=auto;html=1;dashed=1;entryX=0.5;entryY=0;entryDx=0;entryDy=0;" edge="1" parent="1" source="8UQCT4z4PkMHKA5L1V-o-10" target="8UQCT4z4PkMHKA5L1V-o-16">
          <mxGeometry relative="1" as="geometry">
            <mxPoint x="700" y="610" as="targetPoint" />
            <mxPoint x="700" y="510" as="sourcePoint" />
          </mxGeometry>
        </mxCell>
        <mxCell id="8UQCT4z4PkMHKA5L1V-o-8" value="registrarse en la app" style="ellipse;whiteSpace=wrap;html=1;" vertex="1" parent="1">
          <mxGeometry x="460" y="430" width="120" height="80" as="geometry" />
        </mxCell>
        <mxCell id="8UQCT4z4PkMHKA5L1V-o-32" style="edgeStyle=orthogonalEdgeStyle;rounded=0;orthogonalLoop=1;jettySize=auto;html=1;exitX=1;exitY=0.5;exitDx=0;exitDy=0;entryX=0;entryY=0.5;entryDx=0;entryDy=0;" edge="1" parent="1" source="8UQCT4z4PkMHKA5L1V-o-10" target="8UQCT4z4PkMHKA5L1V-o-33">
          <mxGeometry relative="1" as="geometry">
            <mxPoint x="850" y="470" as="targetPoint" />
          </mxGeometry>
        </mxCell>
        <mxCell id="8UQCT4z4PkMHKA5L1V-o-10" value="pujar por coche" style="ellipse;whiteSpace=wrap;html=1;" vertex="1" parent="1">
          <mxGeometry x="640" y="430" width="120" height="80" as="geometry" />
        </mxCell>
        <mxCell id="8UQCT4z4PkMHKA5L1V-o-15" value="&amp;lt;&amp;lt;include&amp;gt;&amp;gt;" style="text;html=1;align=center;verticalAlign=middle;resizable=0;points=[];autosize=1;strokeColor=none;fillColor=none;" vertex="1" parent="1">
          <mxGeometry x="705" y="540" width="90" height="30" as="geometry" />
        </mxCell>
        <mxCell id="8UQCT4z4PkMHKA5L1V-o-16" value="elegir coche" style="ellipse;whiteSpace=wrap;html=1;" vertex="1" parent="1">
          <mxGeometry x="640" y="610" width="120" height="80" as="geometry" />
        </mxCell>
        <mxCell id="8UQCT4z4PkMHKA5L1V-o-20" value="" style="edgeStyle=orthogonalEdgeStyle;rounded=0;orthogonalLoop=1;jettySize=auto;html=1;entryX=0;entryY=0.5;entryDx=0;entryDy=0;" edge="1" parent="1" source="8UQCT4z4PkMHKA5L1V-o-17" target="8UQCT4z4PkMHKA5L1V-o-21">
          <mxGeometry relative="1" as="geometry">
            <mxPoint x="235" y="820" as="targetPoint" />
          </mxGeometry>
        </mxCell>
        <mxCell id="8UQCT4z4PkMHKA5L1V-o-17" value="Moderador/admin" style="shape=umlActor;verticalLabelPosition=bottom;verticalAlign=top;html=1;outlineConnect=0;" vertex="1" parent="1">
          <mxGeometry x="230" y="770" width="30" height="60" as="geometry" />
        </mxCell>
        <mxCell id="8UQCT4z4PkMHKA5L1V-o-22" style="edgeStyle=orthogonalEdgeStyle;rounded=0;orthogonalLoop=1;jettySize=auto;html=1;entryX=0;entryY=0.5;entryDx=0;entryDy=0;" edge="1" parent="1" source="8UQCT4z4PkMHKA5L1V-o-21" target="8UQCT4z4PkMHKA5L1V-o-23">
          <mxGeometry relative="1" as="geometry">
            <mxPoint x="520" y="820" as="targetPoint" />
          </mxGeometry>
        </mxCell>
        <mxCell id="8UQCT4z4PkMHKA5L1V-o-21" value="revisar pujas" style="ellipse;whiteSpace=wrap;html=1;" vertex="1" parent="1">
          <mxGeometry x="360" y="760" width="120" height="80" as="geometry" />
        </mxCell>
        <mxCell id="8UQCT4z4PkMHKA5L1V-o-23" value="revisar datos del usuario" style="ellipse;whiteSpace=wrap;html=1;" vertex="1" parent="1">
          <mxGeometry x="585" y="760" width="120" height="80" as="geometry" />
        </mxCell>
        <mxCell id="8UQCT4z4PkMHKA5L1V-o-27" style="edgeStyle=orthogonalEdgeStyle;rounded=0;orthogonalLoop=1;jettySize=auto;html=1;entryX=0;entryY=0.5;entryDx=0;entryDy=0;" edge="1" parent="1" source="8UQCT4z4PkMHKA5L1V-o-25" target="8UQCT4z4PkMHKA5L1V-o-28">
          <mxGeometry relative="1" as="geometry">
            <mxPoint x="300" y="930" as="targetPoint" />
          </mxGeometry>
        </mxCell>
        <mxCell id="8UQCT4z4PkMHKA5L1V-o-25" value="Suministrador" style="shape=umlActor;verticalLabelPosition=bottom;verticalAlign=top;html=1;outlineConnect=0;" vertex="1" parent="1">
          <mxGeometry x="120" y="900" width="30" height="60" as="geometry" />
        </mxCell>
        <mxCell id="8UQCT4z4PkMHKA5L1V-o-26" value="" style="endArrow=block;html=1;rounded=0;exitX=0.5;exitY=0;exitDx=0;exitDy=0;exitPerimeter=0;endFill=0;" edge="1" parent="1" source="8UQCT4z4PkMHKA5L1V-o-25" target="8UQCT4z4PkMHKA5L1V-o-1">
          <mxGeometry width="50" height="50" relative="1" as="geometry">
            <mxPoint x="255" y="780" as="sourcePoint" />
            <mxPoint x="156" y="510" as="targetPoint" />
          </mxGeometry>
        </mxCell>
        <mxCell id="8UQCT4z4PkMHKA5L1V-o-30" style="edgeStyle=orthogonalEdgeStyle;rounded=0;orthogonalLoop=1;jettySize=auto;html=1;exitX=1;exitY=0.5;exitDx=0;exitDy=0;endArrow=none;endFill=0;startArrow=classic;startFill=1;dashed=1;" edge="1" parent="1" source="8UQCT4z4PkMHKA5L1V-o-28" target="8UQCT4z4PkMHKA5L1V-o-29">
          <mxGeometry relative="1" as="geometry" />
        </mxCell>
        <mxCell id="8UQCT4z4PkMHKA5L1V-o-28" value="proveer de vehiculo" style="ellipse;whiteSpace=wrap;html=1;" vertex="1" parent="1">
          <mxGeometry x="270" y="890" width="120" height="80" as="geometry" />
        </mxCell>
        <mxCell id="8UQCT4z4PkMHKA5L1V-o-29" value="vehiculo subastado" style="ellipse;whiteSpace=wrap;html=1;" vertex="1" parent="1">
          <mxGeometry x="480" y="890" width="120" height="80" as="geometry" />
        </mxCell>
        <mxCell id="8UQCT4z4PkMHKA5L1V-o-31" value="&amp;lt;&amp;lt;extend&amp;gt;&amp;gt;" style="text;html=1;align=center;verticalAlign=middle;resizable=0;points=[];autosize=1;strokeColor=none;fillColor=none;" vertex="1" parent="1">
          <mxGeometry x="390" y="930" width="90" height="30" as="geometry" />
        </mxCell>
        <mxCell id="8UQCT4z4PkMHKA5L1V-o-34" style="edgeStyle=orthogonalEdgeStyle;rounded=0;orthogonalLoop=1;jettySize=auto;html=1;dashed=1;endArrow=none;endFill=0;startArrow=classic;startFill=1;entryX=0.5;entryY=0;entryDx=0;entryDy=0;" edge="1" parent="1" source="8UQCT4z4PkMHKA5L1V-o-33" target="8UQCT4z4PkMHKA5L1V-o-35">
          <mxGeometry relative="1" as="geometry">
            <mxPoint x="887" y="620" as="targetPoint" />
          </mxGeometry>
        </mxCell>
        <mxCell id="8UQCT4z4PkMHKA5L1V-o-33" value="recibir correo del precio final" style="ellipse;whiteSpace=wrap;html=1;" vertex="1" parent="1">
          <mxGeometry x="827" y="430" width="120" height="80" as="geometry" />
        </mxCell>
        <mxCell id="8UQCT4z4PkMHKA5L1V-o-35" value="recibir correo informativo" style="ellipse;whiteSpace=wrap;html=1;" vertex="1" parent="1">
          <mxGeometry x="827" y="610" width="120" height="80" as="geometry" />
        </mxCell>
        <mxCell id="8UQCT4z4PkMHKA5L1V-o-36" value="&amp;lt;&amp;lt;extend&amp;gt;&amp;gt;" style="text;html=1;align=center;verticalAlign=middle;resizable=0;points=[];autosize=1;strokeColor=none;fillColor=none;" vertex="1" parent="1">
          <mxGeometry x="887" y="540" width="90" height="30" as="geometry" />
        </mxCell>
        <mxCell id="8UQCT4z4PkMHKA5L1V-o-37" value="Actores involucrados: Usuario, moderador/admin, suministrador&lt;div&gt;Precondición: Que haya coches para subastar&lt;/div&gt;&lt;div&gt;Flujo básico:&amp;nbsp;&lt;/div&gt;&lt;div&gt;&lt;span style=&quot;white-space: pre;&quot;&gt;&#x9;&lt;/span&gt;-Suministrador provee de vehiculos&lt;/div&gt;&lt;div&gt;&lt;span style=&quot;white-space: pre;&quot;&gt;&#x9;&lt;/span&gt;-Usuario mira coches&lt;br&gt;&lt;/div&gt;&lt;div&gt;&lt;span style=&quot;white-space: pre;&quot;&gt;&#x9;&lt;/span&gt;-Usuario se registra en la app&lt;br&gt;&lt;/div&gt;&lt;div&gt;&lt;span style=&quot;white-space: pre;&quot;&gt;&#x9;&lt;/span&gt;-Usuario puja por un coche&lt;br&gt;&lt;/div&gt;&lt;div&gt;&lt;span style=&quot;white-space: pre;&quot;&gt;&#x9;&lt;/span&gt;-Usuario elige previamente el vehiculo&lt;br&gt;&lt;/div&gt;&lt;div&gt;&lt;span style=&quot;white-space: pre;&quot;&gt;&#x9;&lt;/span&gt;-Usuario recibe correo del precio final de la subasta&lt;br&gt;&lt;/div&gt;&lt;div&gt;&lt;span style=&quot;white-space: pre;&quot;&gt;&#x9;&lt;/span&gt;-Usuario recibe correo informativo similar&lt;br&gt;&lt;/div&gt;&lt;div&gt;&lt;span style=&quot;white-space: pre;&quot;&gt;&#x9;&lt;/span&gt;-Moderador revisa pujas&lt;br&gt;&lt;/div&gt;&lt;div&gt;&lt;span style=&quot;white-space: pre;&quot;&gt;&#x9;&lt;/span&gt;-Moderador revisa datos del usuario&lt;br&gt;&lt;/div&gt;&lt;div&gt;&lt;span style=&quot;white-space: pre;&quot;&gt;&#x9;&lt;/span&gt;-Vehiculo subastado&lt;/div&gt;&lt;div&gt;Caminos alternativos: En el paso 7 el usuario puede no solicitar recibir correo informativo similar,&lt;/div&gt;&lt;div&gt;en el paso 10 puede no subastarse el vehiculo&lt;/div&gt;&lt;div&gt;Postcondicion: El vehiculo es subastado&lt;/div&gt;" style="text;html=1;align=left;verticalAlign=middle;whiteSpace=wrap;rounded=0;" vertex="1" parent="1">
          <mxGeometry x="120" y="1060" width="530" height="230" as="geometry" />
        </mxCell>
      </root>
    </mxGraphModel>
  </diagram>
</mxfile>
